<?xml version="1.0" standalone="no"?>
<!DOCTYPE svg PUBLIC "-//W3C//DTD SVG 20010904//EN"
 "http://www.w3.org/TR/2001/REC-SVG-20010904/DTD/svg10.dtd">
<svg version="1.0" xmlns="http://www.w3.org/2000/svg"
 width="2012.000000pt" height="240.000000pt" viewBox="0 0 2012.000000 240.000000"
 preserveAspectRatio="xMidYMid meet">
<metadata>
Created by potrace 1.16, written by Peter Selinger 2001-2019
</metadata>
<g transform="translate(0.000000,240.000000) scale(0.100000,-0.100000)"
fill="#15503a" stroke="none">
<path d="M2451 1951 c-23 -22 -53 -43 -68 -48 -17 -6 -30 -19 -34 -36 -4 -15
-32 -53 -62 -83 -31 -31 -58 -68 -62 -82 -3 -14 -15 -32 -26 -40 -10 -7 -19
-25 -19 -39 0 -15 -7 -34 -16 -44 -9 -10 -18 -37 -21 -61 -3 -24 -12 -51 -20
-60 -9 -9 -18 -38 -20 -62 -3 -25 -12 -51 -19 -57 -8 -6 -14 -22 -14 -34 0
-12 -8 -33 -19 -46 -10 -13 -21 -42 -25 -63 -6 -29 -22 -55 -59 -93 -29 -30
-55 -67 -60 -82 -5 -20 -16 -31 -34 -36 -14 -3 -38 -15 -51 -26 -14 -10 -29
-19 -34 -19 -6 0 -21 -9 -35 -20 -14 -11 -35 -20 -46 -20 -11 0 -28 -7 -37
-15 -14 -12 -62 -15 -281 -16 -407 -2 -390 -3 -423 27 l-28 27 36 33 c21 19
44 34 52 34 9 0 27 9 41 20 14 11 39 20 55 20 16 0 42 10 58 22 24 17 44 21
110 22 65 1 83 4 91 18 6 10 28 20 57 24 26 4 56 13 67 20 11 8 44 14 75 14
32 0 64 6 76 14 11 8 49 18 85 22 38 4 74 14 88 25 13 11 38 19 55 20 45 1
130 51 134 79 5 32 -46 74 -68 55 -8 -7 -53 -15 -99 -18 -49 -4 -91 -12 -100
-21 -10 -8 -50 -16 -99 -19 -52 -3 -90 -11 -100 -20 -9 -8 -46 -17 -81 -21
-36 -3 -72 -13 -81 -21 -9 -8 -35 -15 -58 -15 -30 0 -47 -6 -59 -20 -12 -13
-30 -20 -54 -20 -20 0 -47 -8 -60 -19 -13 -10 -38 -22 -56 -25 -17 -4 -34 -14
-37 -22 -3 -8 -14 -14 -24 -14 -11 0 -30 -9 -44 -19 -13 -11 -36 -23 -51 -26
-14 -4 -49 -30 -77 -57 -43 -44 -50 -56 -50 -89 0 -28 6 -42 20 -51 11 -7 20
-22 20 -33 0 -34 14 -45 66 -51 27 -4 57 -13 66 -21 11 -10 48 -17 102 -20 55
-4 90 -11 97 -19 17 -21 357 -20 385 1 12 9 42 14 80 15 51 0 66 4 88 25 15
14 35 25 45 25 28 0 268 239 277 275 4 17 16 36 26 43 10 7 18 25 18 41 0 16
6 34 14 40 8 6 17 33 21 58 4 26 15 58 26 71 10 14 19 32 19 41 0 9 7 25 15
35 8 11 15 34 15 52 0 17 9 43 20 57 11 14 20 34 20 45 0 10 9 31 20 45 11 14
20 33 20 42 0 28 62 96 85 93 18 -3 20 -9 18 -68 -6 -152 -15 -225 -31 -243
-12 -13 -17 -46 -20 -135 -2 -69 -9 -125 -17 -137 -18 -30 -25 -196 -9 -226 7
-13 13 -52 14 -86 0 -89 3 -93 66 -93 30 0 54 3 54 8 0 4 27 36 60 72 33 36
60 73 60 83 0 9 9 26 20 37 11 11 23 34 27 51 3 17 12 33 18 36 7 2 16 19 19
38 4 18 13 38 21 45 8 7 15 20 15 30 0 9 9 29 20 43 11 14 20 34 20 45 0 10 9
31 20 45 11 14 20 32 20 40 0 8 9 26 20 40 11 14 20 39 20 56 0 22 13 48 40
82 22 28 40 58 40 68 0 9 5 22 12 29 7 7 17 27 22 44 9 26 17 33 36 33 25 0
25 -1 22 -74 -2 -42 -10 -88 -19 -104 -8 -17 -17 -58 -20 -91 -2 -34 -14 -81
-26 -106 -19 -41 -21 -62 -21 -241 -1 -169 1 -199 15 -215 10 -12 18 -43 21
-81 3 -39 10 -69 21 -81 9 -10 17 -26 17 -34 0 -9 21 -44 48 -77 42 -54 51
-60 85 -61 l37 0 0 55 c0 44 -4 57 -20 67 -11 7 -20 20 -20 29 0 9 -9 27 -19
40 -29 37 -42 176 -34 364 5 134 9 164 25 184 12 16 18 40 18 78 0 40 6 62 20
80 16 20 20 41 20 99 0 59 4 77 19 91 16 16 20 40 26 176 8 175 5 187 -49 187
-38 0 -74 -25 -142 -99 -27 -29 -66 -71 -86 -93 -21 -22 -38 -46 -38 -53 0 -7
-9 -24 -20 -38 -11 -14 -20 -32 -20 -41 0 -9 -9 -25 -19 -35 -10 -10 -22 -33
-26 -51 -4 -17 -13 -34 -21 -37 -8 -3 -14 -15 -14 -28 0 -12 -9 -33 -19 -47
-11 -13 -23 -36 -26 -51 -4 -14 -13 -31 -21 -38 -8 -6 -14 -18 -14 -26 0 -9
-9 -34 -21 -57 -12 -22 -29 -57 -39 -76 -9 -19 -20 -51 -24 -71 -4 -21 -13
-42 -21 -49 -8 -7 -15 -21 -15 -32 0 -10 -14 -37 -32 -58 -24 -31 -34 -37 -45
-29 -19 16 -18 148 2 176 10 14 18 57 22 120 4 73 11 104 25 122 15 19 18 42
18 119 0 73 4 99 16 113 12 14 18 53 24 176 l8 158 -32 32 c-17 18 -39 33 -48
33 -9 0 -35 -18 -57 -39z"/>
<path d="M5025 1970 c-10 -11 -26 -20 -37 -20 -25 0 -115 -94 -123 -130 -3
-16 -12 -34 -20 -40 -8 -6 -17 -24 -20 -40 -3 -16 -13 -34 -20 -40 -8 -7 -18
-35 -21 -62 -4 -27 -12 -52 -19 -54 -7 -3 -16 -29 -19 -57 -4 -29 -15 -60 -24
-70 -9 -11 -17 -42 -20 -80 -3 -34 -11 -71 -18 -82 -8 -11 -14 -44 -14 -76 0
-41 -5 -63 -20 -82 -16 -20 -20 -40 -20 -99 0 -54 -5 -80 -17 -98 -10 -14 -23
-38 -28 -55 -10 -30 -11 -30 -75 -27 -56 3 -68 1 -84 -17 -21 -23 -56 -27 -74
-9 -19 19 -14 56 8 70 15 10 20 24 20 59 0 33 -6 51 -20 64 -11 10 -20 26 -20
35 0 9 -9 25 -20 35 -14 13 -20 29 -18 49 2 25 9 33 38 42 23 8 38 20 44 38 9
23 6 30 -25 56 -40 34 -69 38 -94 10 -10 -11 -26 -20 -36 -20 -22 0 -76 -56
-83 -86 -3 -12 -40 -58 -81 -101 -58 -60 -75 -84 -73 -103 2 -19 10 -26 30
-28 20 -2 36 6 65 36 58 60 70 60 131 1 63 -62 68 -94 22 -140 -30 -30 -30
-30 -129 -27 -65 2 -104 -1 -111 -8 -6 -6 -12 -33 -13 -60 l-2 -49 180 -3 c99
-2 194 0 210 3 26 4 100 66 143 119 22 28 33 7 30 -57 l-3 -62 43 -3 c49 -4
72 10 72 42 0 11 9 35 20 51 11 17 20 43 20 58 0 15 9 45 20 65 10 20 21 45
24 55 13 44 86 -15 86 -70 0 -11 9 -28 20 -38 13 -12 20 -31 20 -55 0 -43 54
-110 89 -110 12 0 24 -7 27 -15 8 -19 58 -20 73 -1 6 7 32 16 57 20 35 4 54
15 86 46 32 33 43 39 54 29 8 -6 14 -20 14 -30 0 -10 14 -31 32 -48 l32 -29
155 -1 c138 0 157 2 179 20 14 10 32 19 41 19 25 1 121 93 121 117 0 46 -42
51 -87 10 -19 -17 -41 -20 -163 -24 -143 -5 -170 0 -170 33 0 21 52 64 92 74
20 6 40 15 43 20 3 6 25 10 49 10 54 0 66 13 66 71 0 37 4 49 18 53 9 4 39 26
65 50 40 36 48 48 45 72 -3 28 -5 29 -60 32 -34 2 -61 9 -68 17 -17 21 -133
21 -150 0 -7 -8 -22 -15 -35 -15 -30 0 -84 -54 -92 -90 -3 -16 -12 -35 -19
-41 -20 -17 -17 -53 6 -74 34 -30 21 -85 -20 -85 -9 0 -34 -18 -55 -40 -22
-23 -49 -40 -61 -40 -12 0 -39 -16 -60 -35 -39 -35 -69 -44 -76 -24 -2 6 -25
13 -51 14 -25 2 -51 6 -57 10 -12 7 -13 64 -2 81 12 19 101 84 115 84 18 0 37
21 37 40 0 9 9 25 20 35 14 13 20 31 20 63 0 39 -5 48 -47 88 -39 38 -52 44
-88 44 -25 0 -48 -6 -54 -14 -7 -8 -25 -18 -41 -21 -16 -3 -34 -13 -41 -21
-16 -19 -63 -44 -84 -44 -14 0 -15 9 -9 63 3 34 15 76 25 93 11 17 19 47 19
66 0 22 7 42 20 53 17 15 20 31 20 95 0 60 4 83 18 101 11 13 22 50 26 83 5
46 14 67 41 101 19 23 35 50 35 59 0 30 30 30 61 0 27 -25 30 -34 26 -71 -2
-23 -14 -54 -26 -69 -11 -15 -21 -33 -21 -40 0 -7 -19 -31 -42 -52 -49 -46
-44 -62 19 -62 43 0 49 4 99 57 30 31 54 66 54 78 0 11 9 26 20 33 17 11 20
23 20 95 0 80 -1 83 -34 115 -30 29 -39 32 -93 32 -47 0 -64 -4 -78 -20z m-1
-842 c25 -35 19 -73 -14 -111 -37 -42 -72 -51 -104 -26 -13 11 -33 19 -43 19
-11 0 -27 6 -37 13 -22 16 -12 42 25 67 12 8 33 25 47 38 35 31 105 31 126 0z
m561 -7 c69 -39 66 -55 -11 -59 -70 -3 -100 14 -88 52 14 43 31 45 99 7z"/>
<path d="M6302 1930 c-7 -11 -21 -20 -32 -20 -25 0 -78 -57 -85 -92 -4 -14
-13 -32 -21 -39 -8 -6 -14 -19 -14 -29 0 -9 -9 -29 -20 -43 -11 -14 -20 -34
-20 -45 0 -10 -8 -26 -19 -36 -12 -11 -20 -37 -24 -83 -4 -36 -13 -73 -20 -82
-8 -9 -17 -44 -20 -79 -3 -35 -12 -71 -20 -80 -9 -10 -18 -50 -22 -102 -4 -52
-13 -92 -22 -102 -9 -10 -15 -36 -14 -65 0 -28 -8 -63 -20 -86 -11 -22 -19
-58 -19 -86 0 -35 -6 -56 -22 -76 -24 -30 -29 -88 -11 -106 8 -8 61 -12 149
-13 117 -1 140 2 153 16 9 9 28 19 43 23 15 4 32 13 39 21 20 24 43 15 73 -27
l28 -40 145 3 c122 3 146 6 154 20 5 9 23 19 39 23 17 4 44 24 63 46 19 21 38
39 44 39 14 0 63 -72 63 -93 0 -25 46 -39 115 -35 57 3 64 7 101 47 33 34 47
42 70 39 23 -2 30 -9 32 -30 5 -44 36 -58 129 -58 80 0 84 1 110 31 47 53 55
60 67 56 6 -2 11 -17 11 -33 0 -43 12 -54 59 -54 38 0 47 5 70 34 14 19 26 43
26 54 0 10 9 29 20 42 12 13 20 37 20 58 0 25 10 47 38 81 21 25 43 58 50 74
6 15 19 27 28 27 9 0 29 11 46 25 34 29 88 33 112 9 23 -22 20 -86 -4 -117
-11 -14 -20 -34 -20 -46 0 -11 -8 -26 -18 -33 -10 -7 -22 -26 -26 -43 -4 -16
-25 -47 -47 -68 -32 -31 -39 -46 -39 -77 0 -48 23 -71 42 -41 15 25 69 29 88
6 12 -14 15 -14 30 0 10 9 35 15 63 15 58 0 85 10 122 49 39 40 58 39 92 -4
15 -19 35 -35 44 -35 9 0 28 -9 42 -20 32 -26 82 -26 114 0 14 11 36 20 50 20
13 0 26 6 29 14 7 18 59 40 79 32 23 -8 20 -72 -5 -93 -14 -13 -20 -30 -20
-60 0 -31 -6 -48 -20 -60 -14 -12 -20 -30 -20 -59 0 -27 -6 -46 -19 -58 -10
-10 -22 -32 -25 -51 -4 -18 -13 -38 -21 -45 -8 -7 -15 -20 -15 -29 0 -10 -15
-32 -33 -49 -30 -29 -39 -32 -88 -31 -79 3 -93 12 -86 62 3 25 14 49 26 59 28
22 26 30 -10 57 -34 26 -59 22 -59 -9 0 -11 -18 -40 -40 -62 -39 -41 -40 -44
-40 -110 0 -56 3 -70 18 -75 9 -4 21 -12 25 -20 12 -19 233 -19 240 1 3 7 19
16 35 19 39 8 162 131 162 162 0 12 9 30 20 40 11 10 20 26 20 35 0 10 9 29
20 43 12 15 20 40 20 65 0 24 8 49 20 65 15 19 20 40 20 84 0 46 4 62 20 76
15 13 20 29 20 72 0 35 7 68 20 93 18 33 21 61 23 180 1 104 -1 144 -11 154
-14 14 -263 25 -309 13 -34 -8 -233 -214 -233 -241 0 -11 -7 -29 -15 -40 -8
-10 -15 -27 -15 -36 0 -10 -12 -31 -27 -48 -26 -28 -36 -32 -117 -40 -86 -9
-116 -4 -116 20 0 4 23 32 51 61 28 30 56 68 64 84 7 17 23 38 34 47 18 16 20
25 14 80 -6 58 -10 66 -51 106 -39 36 -51 42 -87 42 -24 0 -48 -6 -54 -14 -6
-7 -25 -16 -41 -20 -17 -3 -46 -23 -67 -46 -26 -28 -45 -40 -65 -40 -15 0 -29
6 -29 13 -1 6 -3 21 -4 33 -1 11 -13 35 -26 53 -20 27 -29 31 -59 29 l-35 -3
-2 -112 c-1 -84 -5 -118 -17 -135 -9 -12 -16 -38 -16 -57 0 -22 -10 -50 -27
-73 -25 -37 -28 -38 -69 -32 -35 5 -48 2 -70 -15 -26 -20 -76 -27 -108 -15
-22 9 -20 56 4 87 11 14 20 31 20 38 0 7 8 22 19 33 15 17 20 41 23 122 l5
101 -32 32 c-49 47 -95 38 -95 -20 0 -15 -7 -32 -15 -39 -11 -9 -15 -34 -15
-95 0 -70 -3 -87 -22 -111 -12 -16 -27 -32 -32 -36 -5 -3 -17 -21 -25 -39 -11
-21 -26 -35 -45 -40 -16 -5 -32 -13 -36 -19 -10 -17 -84 -24 -109 -11 -29 16
-30 93 -1 118 11 10 20 27 20 39 0 12 9 33 20 47 16 20 20 40 20 106 0 45 -4
81 -8 81 -5 0 -24 20 -42 45 -31 41 -38 46 -70 43 l-35 -3 2 -48 c1 -28 8 -56
17 -66 26 -29 19 -70 -18 -116 -28 -34 -35 -52 -39 -98 -4 -53 -19 -85 -52
-109 -5 -4 -28 -8 -49 -8 -22 0 -47 -6 -55 -14 -10 -8 -50 -15 -103 -19 -123
-7 -136 12 -68 103 33 45 40 61 40 100 0 31 6 56 19 71 11 14 21 50 26 89 4
36 14 73 22 82 9 10 17 45 20 82 3 38 12 71 19 77 10 8 14 36 14 89 0 62 4 82
20 103 12 15 20 40 20 65 0 24 8 49 20 65 11 14 20 34 20 44 0 25 60 83 86 83
31 0 44 -20 44 -67 0 -36 -6 -50 -39 -86 -21 -23 -42 -53 -46 -67 -4 -14 -15
-30 -23 -36 -27 -20 -7 -44 37 -44 32 0 46 6 71 33 17 17 33 44 37 60 3 15 9
27 13 27 5 0 22 19 39 42 28 38 31 49 31 116 0 68 -2 76 -29 103 -28 27 -34
29 -108 29 l-78 0 -52 -50 c-30 -29 -54 -62 -58 -80 -4 -16 -12 -33 -19 -37
-20 -13 -56 -79 -56 -104 0 -13 -7 -37 -16 -54 -9 -16 -21 -50 -25 -74 -5 -25
-14 -48 -21 -52 -6 -4 -15 -38 -19 -75 -5 -37 -15 -74 -23 -83 -7 -9 -17 -45
-21 -81 -4 -36 -14 -74 -21 -85 -8 -11 -14 -40 -14 -64 0 -25 -9 -63 -19 -85
-11 -23 -22 -75 -26 -116 -5 -62 -11 -81 -34 -109 l-29 -35 -17 33 c-15 31
-19 32 -53 26 -20 -4 -44 -13 -53 -21 -22 -20 -123 -18 -154 2 -31 20 -34 70
-5 107 11 14 20 38 20 55 0 16 9 41 20 55 11 14 20 40 20 60 0 19 9 45 20 60
15 19 20 40 20 85 0 44 5 66 20 85 16 20 20 40 20 94 0 51 5 75 20 98 13 20
20 47 20 79 0 43 21 105 52 156 5 8 16 32 25 53 18 41 48 55 81 38 22 -12 32
-48 21 -77 -4 -10 -8 -31 -8 -45 -1 -18 -15 -38 -46 -65 -47 -39 -57 -71 -30
-94 17 -14 42 -7 75 23 31 29 70 83 70 97 0 7 17 32 37 57 31 38 38 54 41 103
4 55 2 59 -28 89 -31 29 -37 31 -114 31 -70 0 -83 -3 -94 -20z m2388 -855 c19
-20 22 -32 18 -74 -3 -27 -12 -57 -21 -66 -10 -9 -17 -25 -17 -35 0 -11 -23
-42 -52 -69 -48 -46 -57 -50 -114 -56 -101 -11 -134 6 -134 71 0 66 15 93 101
176 70 68 84 77 122 80 57 4 72 0 97 -27z"/>
<path d="M12913 1891 c-10 -10 -29 -21 -43 -24 -34 -9 -90 -63 -90 -88 0 -12
-9 -32 -20 -46 -11 -14 -20 -34 -20 -43 0 -10 -6 -23 -14 -29 -8 -7 -18 -25
-21 -41 -3 -16 -13 -34 -21 -41 -8 -6 -14 -28 -14 -49 0 -23 -8 -48 -21 -64
-16 -20 -22 -46 -26 -116 -4 -57 -11 -94 -19 -101 -10 -8 -14 -39 -14 -108 0
-79 -4 -101 -20 -126 -11 -16 -20 -44 -20 -61 0 -16 -7 -39 -15 -50 -8 -10
-15 -35 -15 -54 0 -20 -7 -46 -16 -58 -14 -20 -22 -22 -54 -17 -31 5 -45 2
-68 -15 -41 -30 -116 -25 -120 8 -2 13 3 24 12 28 10 4 18 24 22 55 4 28 14
55 25 65 15 14 19 31 19 94 l0 76 -47 47 c-46 46 -48 47 -109 47 -34 0 -69 2
-76 5 -8 3 -25 -3 -38 -15 -13 -11 -33 -20 -44 -20 -12 0 -29 -9 -39 -20 -9
-11 -26 -20 -36 -20 -27 0 -158 -134 -166 -171 -4 -16 -13 -33 -22 -37 -9 -5
-17 -31 -21 -63 -6 -48 -10 -54 -32 -57 -14 -2 -33 -11 -43 -20 -15 -14 -62
-17 -320 -22 -166 -3 -308 -4 -314 -2 -27 8 -9 35 87 131 58 58 100 108 100
119 0 11 9 31 20 45 11 14 20 32 20 41 0 8 8 23 19 33 11 11 20 38 23 65 3 26
13 54 22 63 9 9 16 33 16 54 0 25 7 44 20 56 11 10 20 28 20 40 0 12 9 34 20
48 11 14 20 32 20 40 0 8 9 26 20 40 11 14 20 31 20 39 0 7 31 44 68 81 63 62
72 68 126 77 89 14 100 5 94 -81 -4 -44 -11 -76 -22 -88 -9 -9 -16 -24 -16
-33 0 -8 -8 -26 -19 -39 -10 -13 -21 -41 -25 -61 -6 -32 -3 -43 21 -73 15 -19
33 -35 38 -35 16 1 93 103 100 133 4 15 14 31 22 36 9 4 17 28 20 57 3 27 12
56 19 64 7 9 16 42 20 74 l7 57 -54 52 -54 52 -96 0 c-77 0 -101 -4 -115 -17
-11 -9 -31 -20 -46 -23 -15 -4 -56 -34 -90 -66 -34 -32 -69 -59 -78 -59 -24 0
-110 -92 -110 -118 0 -12 -9 -27 -20 -34 -11 -7 -20 -23 -20 -35 0 -13 -9 -32
-20 -43 -11 -11 -23 -34 -27 -50 -3 -16 -12 -35 -19 -41 -8 -6 -14 -28 -14
-49 0 -21 -8 -48 -19 -61 -11 -15 -20 -47 -24 -87 -3 -37 -11 -70 -21 -81 -9
-10 -16 -24 -16 -33 0 -8 -9 -27 -20 -41 -11 -14 -20 -32 -20 -40 0 -8 -18
-38 -40 -66 -22 -28 -40 -56 -40 -64 0 -20 -21 -37 -45 -37 -12 0 -30 -9 -40
-20 -17 -18 -31 -20 -167 -20 -81 0 -148 -4 -148 -8 0 -5 -11 -14 -25 -20 -21
-10 -25 -19 -25 -52 0 -27 4 -40 13 -40 8 0 22 -9 32 -20 23 -25 50 -25 72 0
13 15 30 20 68 20 28 0 57 -6 63 -12 10 -10 17 -10 32 0 23 14 64 16 89 3 9
-5 161 -12 338 -15 268 -5 322 -4 332 8 6 8 27 17 46 20 19 4 35 11 35 17 0 5
15 17 33 25 17 8 42 21 53 29 20 15 23 14 50 -14 16 -17 35 -37 42 -46 9 -11
33 -15 92 -15 94 0 117 8 164 55 48 48 86 46 102 -4 14 -44 40 -54 130 -49 70
3 73 4 123 51 52 49 83 57 89 24 2 -10 -4 -27 -13 -37 -23 -25 -11 -40 30 -40
48 0 65 9 65 34 0 11 9 36 20 54 11 18 20 48 20 68 0 38 42 104 66 104 8 0 20
-11 26 -25 6 -14 14 -25 18 -25 11 0 60 -104 60 -127 0 -12 16 -35 35 -52 33
-29 41 -31 110 -31 89 0 110 7 155 54 51 52 100 45 100 -15 0 -31 25 -39 124
-39 39 0 69 -5 82 -15 25 -19 88 -19 104 0 8 10 30 15 61 15 44 0 53 4 88 40
21 22 48 40 59 40 27 0 44 24 40 57 -3 26 -7 28 -50 31 -38 2 -50 -1 -68 -20
-19 -21 -32 -23 -153 -29 -193 -9 -213 5 -127 85 48 45 50 46 115 46 60 0 68
3 90 28 l24 27 -27 28 c-22 23 -33 27 -85 27 -70 0 -97 12 -97 45 0 45 65 60
99 24 17 -18 32 -22 94 -23 98 -1 109 8 105 88 l-3 61 -131 3 c-108 2 -133 0
-144 -13 -7 -8 -21 -15 -31 -15 -9 0 -34 -16 -54 -34 l-37 -35 0 -105 c0 -98
-1 -106 -22 -120 -13 -8 -36 -28 -52 -45 -23 -24 -37 -31 -67 -31 -24 0 -49
-8 -64 -20 -20 -15 -41 -20 -90 -20 -59 0 -64 2 -74 26 -14 37 -4 58 41 89 22
15 58 48 79 72 32 35 41 54 46 98 9 72 -3 106 -44 120 -17 6 -36 17 -41 25 -8
12 -11 12 -27 -2 -10 -8 -40 -18 -66 -21 -34 -3 -53 -11 -63 -26 -8 -11 -24
-21 -35 -21 -11 0 -30 -5 -41 -11 -18 -9 -24 -8 -35 7 -17 23 -16 29 4 50 12
12 19 36 20 77 2 37 10 71 22 91 12 20 21 60 26 114 4 45 11 84 15 87 5 3 13
36 20 74 6 39 18 75 26 82 8 6 14 20 14 30 0 31 58 89 90 89 32 0 40 -14 40
-69 0 -25 -7 -44 -20 -56 -11 -10 -20 -25 -20 -34 0 -9 -18 -37 -40 -61 -37
-41 -39 -46 -23 -57 35 -27 68 -15 126 44 33 32 57 65 57 77 0 12 9 27 20 34
17 11 20 23 20 94 0 82 0 83 -37 115 -32 28 -44 33 -89 33 -39 0 -58 -5 -71
-19z m-729 -824 c16 -12 18 -22 12 -80 -5 -41 -15 -75 -27 -91 -10 -13 -19
-30 -19 -38 0 -8 -23 -36 -51 -63 -49 -47 -54 -49 -116 -53 -60 -4 -67 -2 -94
24 -34 33 -38 70 -9 107 11 14 20 32 20 41 0 8 8 23 19 33 10 10 21 30 25 44
4 18 15 29 33 34 16 3 37 15 48 25 11 11 40 20 65 23 25 2 52 4 61 5 8 1 23
-4 33 -11z m735 -23 c40 -33 41 -70 3 -112 -33 -36 -73 -42 -111 -16 -15 11
-34 14 -57 11 -28 -5 -34 -3 -34 12 0 41 22 81 48 88 15 3 38 14 51 25 33 25
64 23 100 -8z"/>
<path d="M16391 1811 c-19 -16 -37 -21 -86 -21 -49 0 -66 -4 -80 -20 -10 -11
-28 -20 -41 -20 -13 0 -28 -8 -33 -19 -6 -10 -23 -21 -38 -24 -15 -3 -54 -32
-86 -63 -32 -31 -70 -59 -85 -63 -18 -5 -28 -15 -30 -31 -2 -14 -22 -46 -43
-71 -29 -35 -39 -56 -39 -81 0 -22 -7 -42 -20 -53 -11 -10 -20 -30 -20 -45 0
-15 -6 -33 -14 -39 -9 -8 -17 -44 -21 -99 -5 -55 -13 -93 -22 -104 -9 -10 -19
-47 -22 -84 -5 -46 -12 -69 -24 -76 -9 -5 -17 -18 -17 -29 0 -12 -22 -43 -49
-71 -47 -48 -52 -50 -115 -55 -37 -3 -71 -12 -77 -19 -18 -22 -511 -20 -529 1
-7 8 -23 15 -35 15 -30 0 -49 24 -41 52 4 17 31 35 104 71 55 26 104 47 109
47 6 0 16 6 22 14 6 7 42 16 80 20 38 4 74 13 80 20 7 8 47 16 101 20 57 5 93
12 101 22 7 8 29 14 55 14 32 0 49 6 61 20 10 11 27 20 38 20 29 0 42 12 50
41 11 45 -12 53 -128 45 -69 -4 -104 -11 -109 -20 -5 -8 -35 -16 -77 -20 -41
-4 -74 -13 -81 -22 -7 -7 -29 -14 -50 -14 -22 0 -48 -8 -63 -20 -16 -13 -40
-20 -66 -20 -29 0 -46 -6 -58 -20 -10 -11 -28 -20 -40 -20 -13 0 -31 -9 -40
-20 -10 -11 -27 -20 -38 -20 -38 0 -175 -130 -175 -166 0 -11 9 -29 20 -39 11
-10 20 -28 20 -40 0 -27 18 -45 45 -45 12 0 30 -9 40 -20 10 -11 29 -20 42
-20 13 0 36 -9 52 -20 26 -20 38 -21 293 -18 229 3 268 5 284 19 11 9 33 20
51 23 17 4 34 13 36 20 3 8 18 17 34 20 34 9 163 133 163 158 0 10 9 27 20 38
11 11 20 28 20 39 0 10 9 30 20 44 11 14 20 34 20 44 0 10 7 28 15 40 8 12 18
50 22 84 6 61 27 99 55 99 20 0 116 -110 123 -141 4 -15 13 -33 21 -40 8 -6
14 -23 14 -38 0 -15 9 -34 20 -44 16 -13 20 -29 20 -78 0 -46 5 -67 20 -86 12
-15 20 -41 20 -63 0 -21 6 -43 14 -49 7 -6 16 -25 19 -41 4 -16 22 -44 41 -62
18 -18 37 -44 41 -58 13 -43 55 -90 81 -90 13 0 28 -9 34 -21 9 -16 19 -19 48
-17 34 3 37 6 40 36 3 29 -3 39 -37 69 -23 19 -41 40 -41 47 0 7 -11 27 -25
46 -14 19 -25 41 -25 49 0 8 -8 23 -17 33 -10 11 -18 42 -21 76 -3 34 -12 66
-23 81 -11 13 -19 39 -19 58 0 18 -9 46 -19 61 -11 15 -22 50 -25 79 l-7 52
45 21 c25 11 60 20 79 20 19 0 40 7 47 15 7 8 25 15 40 15 15 0 33 7 40 16 8
8 28 21 46 29 18 7 57 38 87 68 30 30 66 57 81 61 16 4 26 13 26 25 0 10 9 30
20 44 11 14 20 32 20 40 0 8 10 27 22 42 18 24 22 43 25 122 l3 93 -50 49
c-27 27 -62 52 -77 56 -16 3 -36 14 -46 23 -13 12 -45 17 -130 20 -103 4 -114
2 -136 -17z m230 -112 l49 -41 0 -68 c0 -52 -4 -73 -20 -93 -11 -14 -20 -32
-20 -41 0 -9 -9 -24 -20 -33 -11 -10 -20 -26 -20 -36 0 -25 -134 -157 -159
-157 -11 0 -28 -8 -38 -19 -21 -22 -176 -48 -209 -34 -12 4 -62 46 -113 93
-98 90 -111 119 -71 155 11 10 20 26 20 37 0 23 134 156 165 164 13 3 29 12
36 20 6 8 22 14 35 14 13 0 32 9 42 20 15 17 37 21 125 27 71 4 111 11 118 20
17 20 27 17 80 -28z"/>
<path d="M19303 1493 c-4 -10 -21 -34 -40 -53 -18 -19 -33 -44 -33 -56 0 -11
-9 -31 -20 -44 -15 -18 -20 -37 -20 -84 0 -66 -8 -80 -88 -149 -18 -15 -32
-32 -32 -38 0 -5 14 -23 32 -39 32 -29 32 -30 20 -75 -7 -25 -12 -69 -12 -98
0 -31 -6 -62 -15 -74 -21 -30 -33 -177 -15 -188 7 -4 69 -10 139 -13 l126 -4
62 48 c61 48 62 50 63 97 0 56 -20 72 -51 38 -11 -11 -28 -21 -38 -21 -10 0
-24 -6 -30 -14 -16 -20 -95 -30 -122 -16 -19 11 -21 18 -15 57 3 24 15 56 26
70 11 14 20 33 20 42 0 9 6 25 14 36 7 11 16 33 20 48 11 44 57 66 127 60 58
-6 61 -5 95 28 l34 33 -31 29 c-29 26 -38 28 -93 27 -94 -3 -89 -7 -84 60 2
34 11 67 20 77 9 10 19 44 22 75 4 33 15 65 27 79 40 46 18 79 -53 79 -37 0
-50 -4 -55 -17z"/>
<path d="M3307 1303 c-13 -12 -7 -40 13 -66 24 -30 26 -79 5 -97 -8 -7 -15
-23 -15 -35 0 -12 -10 -35 -22 -50 -20 -25 -22 -41 -23 -134 0 -96 2 -109 24
-137 41 -55 78 -76 137 -78 50 -1 56 2 96 42 24 23 53 42 63 42 11 0 36 -16
55 -36 42 -44 67 -54 128 -53 62 1 71 5 132 63 40 38 50 54 48 75 -3 23 -7 26
-43 25 -26 0 -52 -9 -72 -23 -26 -19 -34 -21 -52 -11 -15 8 -20 17 -16 30 3
11 10 42 14 70 4 27 16 59 26 70 23 25 35 231 15 255 -15 18 -91 20 -108 3 -7
-7 -12 -40 -12 -78 0 -43 -5 -73 -15 -86 -8 -10 -15 -35 -15 -55 0 -21 -9 -47
-20 -62 -11 -14 -20 -31 -20 -39 0 -21 -69 -78 -94 -78 -12 0 -39 -9 -60 -21
l-38 -20 -29 27 c-35 33 -38 76 -9 101 14 12 20 30 20 60 0 30 6 48 21 62 28
26 33 137 7 152 -11 6 -18 22 -18 37 0 16 -5 33 -12 40 -13 13 -100 17 -111 5z"/>
<path d="M18631 1206 c-6 -7 -27 -17 -46 -20 -19 -4 -35 -11 -35 -15 0 -4 -9
-18 -20 -31 -25 -29 -25 -44 0 -68 11 -10 23 -38 26 -63 5 -37 3 -47 -15 -63
l-20 -19 20 -28 c29 -41 60 -38 93 9 14 21 26 45 26 53 0 24 22 39 57 39 44 0
52 -23 23 -62 -12 -16 -25 -47 -27 -69 -3 -21 -14 -46 -24 -55 -27 -25 -27
-124 0 -148 11 -10 21 -30 23 -44 2 -22 10 -28 43 -35 22 -5 69 -6 104 -2 62
6 66 8 112 58 27 29 49 59 49 68 0 8 -13 27 -28 42 -28 27 -29 27 -46 8 -21
-23 -93 -36 -112 -20 -23 19 -19 145 6 176 11 14 20 32 20 39 0 7 27 39 60 71
l60 58 -30 32 c-31 33 -31 33 -106 26 -67 -5 -78 -4 -104 15 -16 12 -35 22
-41 22 -7 0 -22 9 -34 20 -19 18 -24 19 -34 6z"/>
<path d="M9075 1137 c-48 -50 -50 -54 -48 -106 1 -30 7 -67 13 -82 18 -42 -11
-89 -56 -89 -29 0 -64 -52 -64 -95 0 -39 20 -77 60 -112 24 -21 33 -22 205
-23 l181 0 69 62 c62 54 70 66 70 97 0 33 -3 36 -32 39 -22 2 -35 -3 -45 -17
-18 -25 -81 -40 -211 -47 -94 -6 -103 -5 -120 14 -17 18 -17 23 -4 54 17 39
41 48 134 48 95 0 144 59 86 105 -32 26 -24 45 21 45 24 0 44 11 84 48 52 47
64 76 40 100 -8 8 -60 12 -172 12 l-161 -1 -50 -52z m168 -66 c15 -6 30 -18
34 -27 11 -28 -12 -37 -74 -28 -61 10 -78 29 -52 60 13 16 40 15 92 -5z"/>
<path d="M17465 1159 c-19 -17 -35 -39 -35 -49 0 -10 -25 -47 -56 -82 -30 -35
-61 -78 -69 -95 -8 -18 -19 -33 -24 -33 -17 0 -13 -27 5 -34 32 -12 66 -5 88
19 33 36 74 33 113 -7 39 -42 45 -60 32 -98 -13 -36 -36 -50 -83 -50 -19 0
-38 -4 -41 -10 -3 -5 -28 -10 -55 -10 -58 0 -80 -18 -80 -65 0 -61 10 -64 202
-58 l173 5 46 38 c25 22 62 42 83 46 35 6 41 4 86 -41 l49 -48 119 -5 c153 -6
178 -1 232 48 24 22 51 40 59 40 19 0 71 59 71 80 0 9 9 25 20 35 13 12 20 31
20 54 0 20 6 48 14 62 11 22 11 29 0 44 -8 10 -14 43 -14 72 0 69 -39 118
-101 126 -22 3 -48 12 -58 21 -23 20 -94 21 -111 1 -8 -10 -30 -15 -61 -15
-38 0 -51 -4 -59 -20 -6 -11 -23 -23 -38 -27 -32 -8 -82 -55 -82 -77 0 -8 -18
-34 -40 -58 -22 -24 -40 -53 -40 -64 0 -12 -9 -33 -20 -47 -12 -16 -20 -40
-20 -65 0 -23 -5 -44 -10 -47 -16 -10 -151 -12 -157 -2 -3 5 -5 55 -4 111 2
97 1 103 -24 126 -33 31 -32 60 5 92 22 19 30 35 30 60 0 47 -15 58 -77 58
-44 0 -58 -5 -88 -31z m762 -138 c47 -44 59 -87 48 -175 -6 -49 -12 -60 -56
-101 -46 -43 -50 -45 -110 -45 -69 0 -110 19 -147 69 -27 37 -28 71 -2 104 11
14 20 33 20 43 0 31 90 114 122 114 16 0 31 7 34 15 10 26 49 16 91 -24z"/>
<path d="M16828 1123 c-77 -65 -80 -70 -74 -161 5 -89 4 -93 -68 -145 -12 -9
-19 -32 -23 -72 -6 -75 8 -115 40 -115 13 0 32 -9 42 -20 16 -18 31 -20 160
-20 112 0 145 3 154 14 7 8 25 17 40 21 15 3 48 25 74 50 36 33 47 50 47 74 0
31 -1 31 -50 31 -35 0 -52 -5 -56 -14 -8 -21 -21 -24 -141 -37 -163 -16 -202
8 -127 81 33 32 41 35 98 35 44 0 69 5 89 19 26 18 28 24 27 75 -3 80 -3 81
29 81 20 0 40 11 65 36 39 39 41 45 26 75 -10 17 -23 19 -165 19 -153 0 -154
0 -187 -27z m156 -96 c10 -7 16 -22 14 -33 -3 -15 -12 -19 -46 -18 -47 1 -78
23 -69 48 8 20 75 22 101 3z"/>
</g>
</svg>
